<mxfile host="65bd71144e">
    <diagram name="Page-1" id="3HHZ62rD3V6FRWEqWfzQ">
        <mxGraphModel dx="1669" dy="1074" grid="0" gridSize="10" guides="1" tooltips="1" connect="1" arrows="1" fold="1" page="0" pageScale="1" pageWidth="1654" pageHeight="2338" math="0" shadow="0">
            <root>
                <mxCell id="0"/>
                <mxCell id="1" parent="0"/>
                <mxCell id="tsTUJPSldUOhfeAjr7DW-1" value="Main" style="swimlane;fontStyle=1;align=center;verticalAlign=top;childLayout=stackLayout;horizontal=1;startSize=26;horizontalStack=0;resizeParent=1;resizeParentMax=0;resizeLast=0;collapsible=1;marginBottom=0;whiteSpace=wrap;html=1;fontSize=16;" parent="1" vertex="1">
                    <mxGeometry x="186" y="-111" width="160" height="66" as="geometry"/>
                </mxCell>
                <mxCell id="tsTUJPSldUOhfeAjr7DW-3" value="" style="line;strokeWidth=1;fillColor=none;align=left;verticalAlign=middle;spacingTop=-1;spacingLeft=3;spacingRight=3;rotatable=0;labelPosition=right;points=[];portConstraint=eastwest;strokeColor=inherit;fontSize=16;" parent="tsTUJPSldUOhfeAjr7DW-1" vertex="1">
                    <mxGeometry y="26" width="160" height="8" as="geometry"/>
                </mxCell>
                <mxCell id="tsTUJPSldUOhfeAjr7DW-4" value="+ main()" style="text;strokeColor=none;fillColor=none;align=left;verticalAlign=top;spacingLeft=4;spacingRight=4;overflow=hidden;rotatable=0;points=[[0,0.5],[1,0.5]];portConstraint=eastwest;whiteSpace=wrap;html=1;fontSize=16;" parent="tsTUJPSldUOhfeAjr7DW-1" vertex="1">
                    <mxGeometry y="34" width="160" height="32" as="geometry"/>
                </mxCell>
                <mxCell id="iS8niXqX5ISdiT5KndVr-1" value="&amp;lt;class&amp;gt;&lt;br&gt;Game" style="swimlane;fontStyle=1;align=center;verticalAlign=top;childLayout=stackLayout;horizontal=1;startSize=46;horizontalStack=0;resizeParent=1;resizeParentMax=0;resizeLast=0;collapsible=1;marginBottom=0;whiteSpace=wrap;html=1;fontSize=16;" parent="1" vertex="1">
                    <mxGeometry x="489" y="-37" width="253" height="134" as="geometry"/>
                </mxCell>
                <mxCell id="iS8niXqX5ISdiT5KndVr-3" value="" style="line;strokeWidth=1;fillColor=none;align=left;verticalAlign=middle;spacingTop=-1;spacingLeft=3;spacingRight=3;rotatable=0;labelPosition=right;points=[];portConstraint=eastwest;strokeColor=inherit;fontSize=16;" parent="iS8niXqX5ISdiT5KndVr-1" vertex="1">
                    <mxGeometry y="46" width="253" height="8" as="geometry"/>
                </mxCell>
                <mxCell id="iS8niXqX5ISdiT5KndVr-4" value="+ new(players: [Player]): Game" style="text;strokeColor=none;fillColor=none;align=left;verticalAlign=top;spacingLeft=4;spacingRight=4;overflow=hidden;rotatable=0;points=[[0,0.5],[1,0.5]];portConstraint=eastwest;whiteSpace=wrap;html=1;fontSize=16;" parent="iS8niXqX5ISdiT5KndVr-1" vertex="1">
                    <mxGeometry y="54" width="253" height="27" as="geometry"/>
                </mxCell>
                <mxCell id="iS8niXqX5ISdiT5KndVr-6" value="+ update()" style="text;strokeColor=none;fillColor=none;align=left;verticalAlign=top;spacingLeft=4;spacingRight=4;overflow=hidden;rotatable=0;points=[[0,0.5],[1,0.5]];portConstraint=eastwest;whiteSpace=wrap;html=1;fontSize=16;" parent="iS8niXqX5ISdiT5KndVr-1" vertex="1">
                    <mxGeometry y="81" width="253" height="27" as="geometry"/>
                </mxCell>
                <mxCell id="iS8niXqX5ISdiT5KndVr-8" value="+ exited(): boolean" style="text;strokeColor=none;fillColor=none;align=left;verticalAlign=top;spacingLeft=4;spacingRight=4;overflow=hidden;rotatable=0;points=[[0,0.5],[1,0.5]];portConstraint=eastwest;whiteSpace=wrap;html=1;fontSize=16;" parent="iS8niXqX5ISdiT5KndVr-1" vertex="1">
                    <mxGeometry y="108" width="253" height="26" as="geometry"/>
                </mxCell>
                <mxCell id="iS8niXqX5ISdiT5KndVr-13" value="PlayerFactory" style="swimlane;fontStyle=1;align=center;verticalAlign=top;childLayout=stackLayout;horizontal=1;startSize=26;horizontalStack=0;resizeParent=1;resizeParentMax=0;resizeLast=0;collapsible=1;marginBottom=0;whiteSpace=wrap;html=1;fontSize=16;" parent="1" vertex="1">
                    <mxGeometry x="-169" y="20" width="210" height="67" as="geometry"/>
                </mxCell>
                <mxCell id="iS8niXqX5ISdiT5KndVr-15" value="" style="line;strokeWidth=1;fillColor=none;align=left;verticalAlign=middle;spacingTop=-1;spacingLeft=3;spacingRight=3;rotatable=0;labelPosition=right;points=[];portConstraint=eastwest;strokeColor=inherit;fontSize=16;" parent="iS8niXqX5ISdiT5KndVr-13" vertex="1">
                    <mxGeometry y="26" width="210" height="8" as="geometry"/>
                </mxCell>
                <mxCell id="iS8niXqX5ISdiT5KndVr-16" value="+ ask(name: string): Player" style="text;strokeColor=none;fillColor=none;align=left;verticalAlign=top;spacingLeft=4;spacingRight=4;overflow=hidden;rotatable=0;points=[[0,0.5],[1,0.5]];portConstraint=eastwest;whiteSpace=wrap;html=1;fontSize=16;" parent="iS8niXqX5ISdiT5KndVr-13" vertex="1">
                    <mxGeometry y="34" width="210" height="33" as="geometry"/>
                </mxCell>
                <mxCell id="iS8niXqX5ISdiT5KndVr-17" value="&amp;lt;interface&amp;gt;&lt;br&gt;Player" style="swimlane;fontStyle=1;align=center;verticalAlign=top;childLayout=stackLayout;horizontal=1;startSize=50;horizontalStack=0;resizeParent=1;resizeParentMax=0;resizeLast=0;collapsible=1;marginBottom=0;whiteSpace=wrap;html=1;fontSize=16;" parent="1" vertex="1">
                    <mxGeometry x="75" y="121" width="307" height="84" as="geometry"/>
                </mxCell>
                <mxCell id="iS8niXqX5ISdiT5KndVr-19" value="" style="line;strokeWidth=1;fillColor=none;align=left;verticalAlign=middle;spacingTop=-1;spacingLeft=3;spacingRight=3;rotatable=0;labelPosition=right;points=[];portConstraint=eastwest;strokeColor=inherit;fontSize=16;" parent="iS8niXqX5ISdiT5KndVr-17" vertex="1">
                    <mxGeometry y="50" width="307" height="8" as="geometry"/>
                </mxCell>
                <mxCell id="iS8niXqX5ISdiT5KndVr-40" value="+ getMove(board: Board, mark: Mark): int" style="text;strokeColor=none;fillColor=none;align=left;verticalAlign=top;spacingLeft=4;spacingRight=4;overflow=hidden;rotatable=0;points=[[0,0.5],[1,0.5]];portConstraint=eastwest;whiteSpace=wrap;html=1;fontSize=16;" parent="iS8niXqX5ISdiT5KndVr-17" vertex="1">
                    <mxGeometry y="58" width="307" height="26" as="geometry"/>
                </mxCell>
                <mxCell id="iS8niXqX5ISdiT5KndVr-22" value="Use" style="endArrow=open;endSize=12;dashed=1;html=1;rounded=0;fontSize=12;curved=1;" parent="1" source="tsTUJPSldUOhfeAjr7DW-1" target="iS8niXqX5ISdiT5KndVr-1" edge="1">
                    <mxGeometry width="160" relative="1" as="geometry">
                        <mxPoint x="44" y="36" as="sourcePoint"/>
                        <mxPoint x="204" y="36" as="targetPoint"/>
                    </mxGeometry>
                </mxCell>
                <mxCell id="iS8niXqX5ISdiT5KndVr-23" value="Use" style="endArrow=open;endSize=12;dashed=1;html=1;rounded=0;fontSize=12;curved=1;" parent="1" source="tsTUJPSldUOhfeAjr7DW-1" target="iS8niXqX5ISdiT5KndVr-13" edge="1">
                    <mxGeometry width="160" relative="1" as="geometry">
                        <mxPoint x="6" y="171" as="sourcePoint"/>
                        <mxPoint x="166" y="171" as="targetPoint"/>
                    </mxGeometry>
                </mxCell>
                <mxCell id="iS8niXqX5ISdiT5KndVr-24" value="Use" style="endArrow=open;endSize=12;dashed=1;html=1;rounded=0;fontSize=12;curved=1;" parent="1" source="tsTUJPSldUOhfeAjr7DW-1" target="iS8niXqX5ISdiT5KndVr-17" edge="1">
                    <mxGeometry width="160" relative="1" as="geometry">
                        <mxPoint x="217" y="92" as="sourcePoint"/>
                        <mxPoint x="377" y="92" as="targetPoint"/>
                    </mxGeometry>
                </mxCell>
                <mxCell id="iS8niXqX5ISdiT5KndVr-25" value="Use" style="endArrow=open;endSize=12;dashed=1;html=1;rounded=0;fontSize=12;curved=1;" parent="1" source="iS8niXqX5ISdiT5KndVr-1" target="iS8niXqX5ISdiT5KndVr-17" edge="1">
                    <mxGeometry width="160" relative="1" as="geometry">
                        <mxPoint x="273" y="-41" as="sourcePoint"/>
                        <mxPoint x="252" y="170" as="targetPoint"/>
                    </mxGeometry>
                </mxCell>
                <mxCell id="iS8niXqX5ISdiT5KndVr-26" value="&amp;lt;class&amp;gt;&lt;br&gt;Human" style="swimlane;fontStyle=1;align=center;verticalAlign=top;childLayout=stackLayout;horizontal=1;startSize=49;horizontalStack=0;resizeParent=1;resizeParentMax=0;resizeLast=0;collapsible=1;marginBottom=0;whiteSpace=wrap;html=1;fontSize=16;" parent="1" vertex="1">
                    <mxGeometry x="-431" y="381" width="345" height="187" as="geometry"/>
                </mxCell>
                <mxCell id="iS8niXqX5ISdiT5KndVr-39" value="- board: Board" style="text;strokeColor=none;fillColor=none;align=left;verticalAlign=top;spacingLeft=4;spacingRight=4;overflow=hidden;rotatable=0;points=[[0,0.5],[1,0.5]];portConstraint=eastwest;whiteSpace=wrap;html=1;fontSize=16;" parent="iS8niXqX5ISdiT5KndVr-26" vertex="1">
                    <mxGeometry y="49" width="345" height="26" as="geometry"/>
                </mxCell>
                <mxCell id="iS8niXqX5ISdiT5KndVr-38" value="- mark: Mark" style="text;strokeColor=none;fillColor=none;align=left;verticalAlign=top;spacingLeft=4;spacingRight=4;overflow=hidden;rotatable=0;points=[[0,0.5],[1,0.5]];portConstraint=eastwest;whiteSpace=wrap;html=1;fontSize=16;" parent="iS8niXqX5ISdiT5KndVr-26" vertex="1">
                    <mxGeometry y="75" width="345" height="26" as="geometry"/>
                </mxCell>
                <mxCell id="iS8niXqX5ISdiT5KndVr-28" value="" style="line;strokeWidth=1;fillColor=none;align=left;verticalAlign=middle;spacingTop=-1;spacingLeft=3;spacingRight=3;rotatable=0;labelPosition=right;points=[];portConstraint=eastwest;strokeColor=inherit;fontSize=16;" parent="iS8niXqX5ISdiT5KndVr-26" vertex="1">
                    <mxGeometry y="101" width="345" height="8" as="geometry"/>
                </mxCell>
                <mxCell id="iS8niXqX5ISdiT5KndVr-36" value="+ new(): Human" style="text;strokeColor=none;fillColor=none;align=left;verticalAlign=top;spacingLeft=4;spacingRight=4;overflow=hidden;rotatable=0;points=[[0,0.5],[1,0.5]];portConstraint=eastwest;whiteSpace=wrap;html=1;fontSize=16;" parent="iS8niXqX5ISdiT5KndVr-26" vertex="1">
                    <mxGeometry y="109" width="345" height="26" as="geometry"/>
                </mxCell>
                <mxCell id="iS8niXqX5ISdiT5KndVr-29" value="- promptMove(board: Board, mark: Mark): int?" style="text;strokeColor=none;fillColor=none;align=left;verticalAlign=top;spacingLeft=4;spacingRight=4;overflow=hidden;rotatable=0;points=[[0,0.5],[1,0.5]];portConstraint=eastwest;whiteSpace=wrap;html=1;fontSize=16;" parent="iS8niXqX5ISdiT5KndVr-26" vertex="1">
                    <mxGeometry y="135" width="345" height="26" as="geometry"/>
                </mxCell>
                <mxCell id="iS8niXqX5ISdiT5KndVr-30" value="+ getMove(board: Board, mark: Mark): int" style="text;strokeColor=none;fillColor=none;align=left;verticalAlign=top;spacingLeft=4;spacingRight=4;overflow=hidden;rotatable=0;points=[[0,0.5],[1,0.5]];portConstraint=eastwest;whiteSpace=wrap;html=1;fontSize=16;" parent="iS8niXqX5ISdiT5KndVr-26" vertex="1">
                    <mxGeometry y="161" width="345" height="26" as="geometry"/>
                </mxCell>
                <mxCell id="iS8niXqX5ISdiT5KndVr-31" value="" style="endArrow=block;dashed=1;endFill=0;endSize=12;html=1;rounded=0;fontSize=12;curved=1;" parent="1" source="iS8niXqX5ISdiT5KndVr-26" target="iS8niXqX5ISdiT5KndVr-17" edge="1">
                    <mxGeometry width="160" relative="1" as="geometry">
                        <mxPoint x="298" y="355" as="sourcePoint"/>
                        <mxPoint x="458" y="355" as="targetPoint"/>
                    </mxGeometry>
                </mxCell>
                <mxCell id="iS8niXqX5ISdiT5KndVr-32" value="&amp;lt;class&amp;gt;&lt;br&gt;Computer" style="swimlane;fontStyle=1;align=center;verticalAlign=top;childLayout=stackLayout;horizontal=1;startSize=53;horizontalStack=0;resizeParent=1;resizeParentMax=0;resizeLast=0;collapsible=1;marginBottom=0;whiteSpace=wrap;html=1;fontSize=16;" parent="1" vertex="1">
                    <mxGeometry x="-4" y="393" width="482" height="373" as="geometry"/>
                </mxCell>
                <mxCell id="iS8niXqX5ISdiT5KndVr-33" value="- winPatternsFor: [[[int]]]" style="text;strokeColor=none;fillColor=none;align=left;verticalAlign=top;spacingLeft=4;spacingRight=4;overflow=hidden;rotatable=0;points=[[0,0.5],[1,0.5]];portConstraint=eastwest;whiteSpace=wrap;html=1;fontSize=16;" parent="iS8niXqX5ISdiT5KndVr-32" vertex="1">
                    <mxGeometry y="53" width="482" height="26" as="geometry"/>
                </mxCell>
                <mxCell id="iS8niXqX5ISdiT5KndVr-34" value="" style="line;strokeWidth=1;fillColor=none;align=left;verticalAlign=middle;spacingTop=-1;spacingLeft=3;spacingRight=3;rotatable=0;labelPosition=right;points=[];portConstraint=eastwest;strokeColor=inherit;fontSize=16;" parent="iS8niXqX5ISdiT5KndVr-32" vertex="1">
                    <mxGeometry y="79" width="482" height="8" as="geometry"/>
                </mxCell>
                <mxCell id="iS8niXqX5ISdiT5KndVr-58" value="+ new(): Computer" style="text;strokeColor=none;fillColor=none;align=left;verticalAlign=top;spacingLeft=4;spacingRight=4;overflow=hidden;rotatable=0;points=[[0,0.5],[1,0.5]];portConstraint=eastwest;whiteSpace=wrap;html=1;fontSize=16;" parent="iS8niXqX5ISdiT5KndVr-32" vertex="1">
                    <mxGeometry y="87" width="482" height="26" as="geometry"/>
                </mxCell>
                <mxCell id="iS8niXqX5ISdiT5KndVr-54" value="- getWinningMoves(board: Board, mark: Mark): [int]" style="text;strokeColor=none;fillColor=none;align=left;verticalAlign=top;spacingLeft=4;spacingRight=4;overflow=hidden;rotatable=0;points=[[0,0.5],[1,0.5]];portConstraint=eastwest;whiteSpace=wrap;html=1;fontSize=16;" parent="iS8niXqX5ISdiT5KndVr-32" vertex="1">
                    <mxGeometry y="113" width="482" height="26" as="geometry"/>
                </mxCell>
                <mxCell id="iS8niXqX5ISdiT5KndVr-56" value="- getBlockingMoves(board: Board, mark: Mark): [int]" style="text;strokeColor=none;fillColor=none;align=left;verticalAlign=top;spacingLeft=4;spacingRight=4;overflow=hidden;rotatable=0;points=[[0,0.5],[1,0.5]];portConstraint=eastwest;whiteSpace=wrap;html=1;fontSize=16;" parent="iS8niXqX5ISdiT5KndVr-32" vertex="1">
                    <mxGeometry y="139" width="482" height="26" as="geometry"/>
                </mxCell>
                <mxCell id="iS8niXqX5ISdiT5KndVr-57" value="- getTrappingMoves(board: Board, mark: Mark): [int]" style="text;strokeColor=none;fillColor=none;align=left;verticalAlign=top;spacingLeft=4;spacingRight=4;overflow=hidden;rotatable=0;points=[[0,0.5],[1,0.5]];portConstraint=eastwest;whiteSpace=wrap;html=1;fontSize=16;" parent="iS8niXqX5ISdiT5KndVr-32" vertex="1">
                    <mxGeometry y="165" width="482" height="26" as="geometry"/>
                </mxCell>
                <mxCell id="iS8niXqX5ISdiT5KndVr-59" value="- getOpeningCenterMove(board: Board, mark: Mark): [int]" style="text;strokeColor=none;fillColor=none;align=left;verticalAlign=top;spacingLeft=4;spacingRight=4;overflow=hidden;rotatable=0;points=[[0,0.5],[1,0.5]];portConstraint=eastwest;whiteSpace=wrap;html=1;fontSize=16;" parent="iS8niXqX5ISdiT5KndVr-32" vertex="1">
                    <mxGeometry y="191" width="482" height="26" as="geometry"/>
                </mxCell>
                <mxCell id="iS8niXqX5ISdiT5KndVr-62" value="- getOpeningCornerMoves(board: Board, mark: Mark): [int]" style="text;strokeColor=none;fillColor=none;align=left;verticalAlign=top;spacingLeft=4;spacingRight=4;overflow=hidden;rotatable=0;points=[[0,0.5],[1,0.5]];portConstraint=eastwest;whiteSpace=wrap;html=1;fontSize=16;" parent="iS8niXqX5ISdiT5KndVr-32" vertex="1">
                    <mxGeometry y="217" width="482" height="26" as="geometry"/>
                </mxCell>
                <mxCell id="iS8niXqX5ISdiT5KndVr-63" value="- getOpeningSideMoves(board: Board, mark: Mark): [int]" style="text;strokeColor=none;fillColor=none;align=left;verticalAlign=top;spacingLeft=4;spacingRight=4;overflow=hidden;rotatable=0;points=[[0,0.5],[1,0.5]];portConstraint=eastwest;whiteSpace=wrap;html=1;fontSize=16;" parent="iS8niXqX5ISdiT5KndVr-32" vertex="1">
                    <mxGeometry y="243" width="482" height="26" as="geometry"/>
                </mxCell>
                <mxCell id="iS8niXqX5ISdiT5KndVr-55" value="- getCenterMove(board: Board, mark: Mark): [int]" style="text;strokeColor=none;fillColor=none;align=left;verticalAlign=top;spacingLeft=4;spacingRight=4;overflow=hidden;rotatable=0;points=[[0,0.5],[1,0.5]];portConstraint=eastwest;whiteSpace=wrap;html=1;fontSize=16;" parent="iS8niXqX5ISdiT5KndVr-32" vertex="1">
                    <mxGeometry y="269" width="482" height="26" as="geometry"/>
                </mxCell>
                <mxCell id="iS8niXqX5ISdiT5KndVr-60" value="- getCornerMoves(board: Board, mark: Mark): [int]" style="text;strokeColor=none;fillColor=none;align=left;verticalAlign=top;spacingLeft=4;spacingRight=4;overflow=hidden;rotatable=0;points=[[0,0.5],[1,0.5]];portConstraint=eastwest;whiteSpace=wrap;html=1;fontSize=16;" parent="iS8niXqX5ISdiT5KndVr-32" vertex="1">
                    <mxGeometry y="295" width="482" height="26" as="geometry"/>
                </mxCell>
                <mxCell id="iS8niXqX5ISdiT5KndVr-61" value="- getSideMoves(board: Board, mark: Mark): [int]" style="text;strokeColor=none;fillColor=none;align=left;verticalAlign=top;spacingLeft=4;spacingRight=4;overflow=hidden;rotatable=0;points=[[0,0.5],[1,0.5]];portConstraint=eastwest;whiteSpace=wrap;html=1;fontSize=16;" parent="iS8niXqX5ISdiT5KndVr-32" vertex="1">
                    <mxGeometry y="321" width="482" height="26" as="geometry"/>
                </mxCell>
                <mxCell id="iS8niXqX5ISdiT5KndVr-35" value="+ getMove(board: Board, mark: Mark): int" style="text;strokeColor=none;fillColor=none;align=left;verticalAlign=top;spacingLeft=4;spacingRight=4;overflow=hidden;rotatable=0;points=[[0,0.5],[1,0.5]];portConstraint=eastwest;whiteSpace=wrap;html=1;fontSize=16;" parent="iS8niXqX5ISdiT5KndVr-32" vertex="1">
                    <mxGeometry y="347" width="482" height="26" as="geometry"/>
                </mxCell>
                <mxCell id="iS8niXqX5ISdiT5KndVr-37" value="" style="endArrow=block;dashed=1;endFill=0;endSize=12;html=1;rounded=0;fontSize=12;curved=1;" parent="1" source="iS8niXqX5ISdiT5KndVr-32" target="iS8niXqX5ISdiT5KndVr-17" edge="1">
                    <mxGeometry width="160" relative="1" as="geometry">
                        <mxPoint x="416" y="247" as="sourcePoint"/>
                        <mxPoint x="576" y="247" as="targetPoint"/>
                    </mxGeometry>
                </mxCell>
                <mxCell id="iS8niXqX5ISdiT5KndVr-42" value="&amp;lt;class&amp;gt;&lt;br&gt;Board" style="swimlane;fontStyle=1;align=center;verticalAlign=top;childLayout=stackLayout;horizontal=1;startSize=51;horizontalStack=0;resizeParent=1;resizeParentMax=0;resizeLast=0;collapsible=1;marginBottom=0;whiteSpace=wrap;html=1;fontSize=16;" parent="1" vertex="1">
                    <mxGeometry x="779" y="112" width="245" height="215" as="geometry"/>
                </mxCell>
                <mxCell id="iS8niXqX5ISdiT5KndVr-43" value="+ winPatterns: [[int]]" style="text;strokeColor=none;fillColor=none;align=left;verticalAlign=top;spacingLeft=4;spacingRight=4;overflow=hidden;rotatable=0;points=[[0,0.5],[1,0.5]];portConstraint=eastwest;whiteSpace=wrap;html=1;fontSize=16;" parent="iS8niXqX5ISdiT5KndVr-42" vertex="1">
                    <mxGeometry y="51" width="245" height="26" as="geometry"/>
                </mxCell>
                <mxCell id="iS8niXqX5ISdiT5KndVr-52" value="- data: [Mark?]" style="text;strokeColor=none;fillColor=none;align=left;verticalAlign=top;spacingLeft=4;spacingRight=4;overflow=hidden;rotatable=0;points=[[0,0.5],[1,0.5]];portConstraint=eastwest;whiteSpace=wrap;html=1;fontSize=16;" parent="iS8niXqX5ISdiT5KndVr-42" vertex="1">
                    <mxGeometry y="77" width="245" height="26" as="geometry"/>
                </mxCell>
                <mxCell id="iS8niXqX5ISdiT5KndVr-44" value="" style="line;strokeWidth=1;fillColor=none;align=left;verticalAlign=middle;spacingTop=-1;spacingLeft=3;spacingRight=3;rotatable=0;labelPosition=right;points=[];portConstraint=eastwest;strokeColor=inherit;fontSize=16;" parent="iS8niXqX5ISdiT5KndVr-42" vertex="1">
                    <mxGeometry y="103" width="245" height="8" as="geometry"/>
                </mxCell>
                <mxCell id="iS8niXqX5ISdiT5KndVr-45" value="+ new(): Board" style="text;strokeColor=none;fillColor=none;align=left;verticalAlign=top;spacingLeft=4;spacingRight=4;overflow=hidden;rotatable=0;points=[[0,0.5],[1,0.5]];portConstraint=eastwest;whiteSpace=wrap;html=1;fontSize=16;" parent="iS8niXqX5ISdiT5KndVr-42" vertex="1">
                    <mxGeometry y="111" width="245" height="26" as="geometry"/>
                </mxCell>
                <mxCell id="iS8niXqX5ISdiT5KndVr-50" value="+ won(mark: Mark): boolean" style="text;strokeColor=none;fillColor=none;align=left;verticalAlign=top;spacingLeft=4;spacingRight=4;overflow=hidden;rotatable=0;points=[[0,0.5],[1,0.5]];portConstraint=eastwest;whiteSpace=wrap;html=1;fontSize=16;" parent="iS8niXqX5ISdiT5KndVr-42" vertex="1">
                    <mxGeometry y="137" width="245" height="26" as="geometry"/>
                </mxCell>
                <mxCell id="iS8niXqX5ISdiT5KndVr-51" value="+ full(): boolean" style="text;strokeColor=none;fillColor=none;align=left;verticalAlign=top;spacingLeft=4;spacingRight=4;overflow=hidden;rotatable=0;points=[[0,0.5],[1,0.5]];portConstraint=eastwest;whiteSpace=wrap;html=1;fontSize=16;" parent="iS8niXqX5ISdiT5KndVr-42" vertex="1">
                    <mxGeometry y="163" width="245" height="26" as="geometry"/>
                </mxCell>
                <mxCell id="iS8niXqX5ISdiT5KndVr-53" value="+ ended(mark: Mark): boolean" style="text;strokeColor=none;fillColor=none;align=left;verticalAlign=top;spacingLeft=4;spacingRight=4;overflow=hidden;rotatable=0;points=[[0,0.5],[1,0.5]];portConstraint=eastwest;whiteSpace=wrap;html=1;fontSize=16;" parent="iS8niXqX5ISdiT5KndVr-42" vertex="1">
                    <mxGeometry y="189" width="245" height="26" as="geometry"/>
                </mxCell>
                <mxCell id="iS8niXqX5ISdiT5KndVr-46" value="&amp;lt;enum&amp;gt;&lt;br&gt;Mark" style="swimlane;fontStyle=1;align=center;verticalAlign=top;childLayout=stackLayout;horizontal=1;startSize=50;horizontalStack=0;resizeParent=1;resizeParentMax=0;resizeLast=0;collapsible=1;marginBottom=0;whiteSpace=wrap;html=1;fontSize=16;" parent="1" vertex="1">
                    <mxGeometry x="742" y="501" width="160" height="76" as="geometry"/>
                </mxCell>
                <mxCell id="iS8niXqX5ISdiT5KndVr-49" value="+ X, O" style="text;strokeColor=none;fillColor=none;align=left;verticalAlign=top;spacingLeft=4;spacingRight=4;overflow=hidden;rotatable=0;points=[[0,0.5],[1,0.5]];portConstraint=eastwest;whiteSpace=wrap;html=1;fontSize=16;" parent="iS8niXqX5ISdiT5KndVr-46" vertex="1">
                    <mxGeometry y="50" width="160" height="26" as="geometry"/>
                </mxCell>
                <mxCell id="iS8niXqX5ISdiT5KndVr-65" value="Use" style="endArrow=open;endSize=12;dashed=1;html=1;rounded=0;fontSize=12;curved=1;" parent="1" source="iS8niXqX5ISdiT5KndVr-42" target="iS8niXqX5ISdiT5KndVr-46" edge="1">
                    <mxGeometry width="160" relative="1" as="geometry">
                        <mxPoint x="606" y="663" as="sourcePoint"/>
                        <mxPoint x="766" y="663" as="targetPoint"/>
                    </mxGeometry>
                </mxCell>
                <mxCell id="iS8niXqX5ISdiT5KndVr-66" value="Use" style="endArrow=open;endSize=12;dashed=1;html=1;rounded=0;fontSize=12;curved=1;" parent="1" source="iS8niXqX5ISdiT5KndVr-13" target="iS8niXqX5ISdiT5KndVr-17" edge="1">
                    <mxGeometry width="160" relative="1" as="geometry">
                        <mxPoint x="69" y="257" as="sourcePoint"/>
                        <mxPoint x="229" y="257" as="targetPoint"/>
                    </mxGeometry>
                </mxCell>
                <mxCell id="iS8niXqX5ISdiT5KndVr-67" value="Use" style="endArrow=open;endSize=12;dashed=1;html=1;rounded=0;fontSize=12;curved=1;" parent="1" source="iS8niXqX5ISdiT5KndVr-13" target="iS8niXqX5ISdiT5KndVr-32" edge="1">
                    <mxGeometry width="160" relative="1" as="geometry">
                        <mxPoint x="-126" y="311" as="sourcePoint"/>
                        <mxPoint x="34" y="311" as="targetPoint"/>
                    </mxGeometry>
                </mxCell>
                <mxCell id="iS8niXqX5ISdiT5KndVr-68" value="Use" style="endArrow=open;endSize=12;dashed=1;html=1;rounded=0;fontSize=12;curved=1;" parent="1" source="iS8niXqX5ISdiT5KndVr-13" target="iS8niXqX5ISdiT5KndVr-26" edge="1">
                    <mxGeometry width="160" relative="1" as="geometry">
                        <mxPoint x="108" y="297" as="sourcePoint"/>
                        <mxPoint x="268" y="297" as="targetPoint"/>
                    </mxGeometry>
                </mxCell>
                <mxCell id="iS8niXqX5ISdiT5KndVr-70" value="Use" style="endArrow=open;endSize=12;dashed=1;html=1;rounded=0;fontSize=12;curved=1;" parent="1" source="iS8niXqX5ISdiT5KndVr-1" target="iS8niXqX5ISdiT5KndVr-46" edge="1">
                    <mxGeometry width="160" relative="1" as="geometry">
                        <mxPoint x="567" y="250" as="sourcePoint"/>
                        <mxPoint x="727" y="250" as="targetPoint"/>
                    </mxGeometry>
                </mxCell>
                <mxCell id="2" value="Use" style="endArrow=open;endSize=12;dashed=1;html=1;" edge="1" parent="1" source="tsTUJPSldUOhfeAjr7DW-1" target="iS8niXqX5ISdiT5KndVr-46">
                    <mxGeometry width="160" relative="1" as="geometry">
                        <mxPoint x="239" y="100" as="sourcePoint"/>
                        <mxPoint x="399" y="100" as="targetPoint"/>
                    </mxGeometry>
                </mxCell>
            </root>
        </mxGraphModel>
    </diagram>
</mxfile>